<?xml version="1.0" encoding="UTF-8"?>
<svg xmlns="http://www.w3.org/2000/svg" width="900" height="620" viewBox="0 0 900 620" role="img" aria-label="International logistics illustration">
  <rect x="0" y="0" width="900" height="620" rx="28" fill="#ffffff"/>

  <!-- Globe -->
  <g transform="translate(130 90)">
    <circle cx="260" cy="220" r="190" fill="#1e293b" opacity="0.08"/>
    <circle cx="260" cy="220" r="150" fill="#f39c12" opacity="0.10"/>

    <g fill="none" stroke="#1e293b" opacity="0.14" stroke-width="8">
      <circle cx="260" cy="220" r="190"/>
      <path d="M70 220H450"/>
      <path d="M260 30V410"/>
      <path d="M110 120C200 170 320 170 410 120"/>
      <path d="M110 320C200 270 320 270 410 320"/>
      <path d="M180 60C230 130 230 310 180 380"/>
      <path d="M340 60C290 130 290 310 340 380"/>
    </g>

    <!-- Route line -->
    <path d="M120 110 C 200 40, 320 40, 400 120" fill="none" stroke="#f39c12" stroke-opacity="0.55" stroke-width="10"/>
    <path d="M120 110 C 200 40, 320 40, 400 120" fill="none" stroke="#d68910" stroke-opacity="0.25" stroke-width="18"/>

    <!-- Plane icon -->
    <g transform="translate(385 95) scale(0.9)" fill="#1e293b" opacity="0.22">
      <path d="M86 20c-10 0-18 6-22 14L8 50c-4 1-6 4-6 7 0 4 3 7 7 7h52l7 10-20 9c-3 2-5 4-5 7 0 5 5 8 10 6l28-10 13 18c2 3 6 5 10 5s8-2 10-5l13-18 28 10c5 2 10-1 10-6 0-3-2-5-5-7l-20-9 7-10h52c4 0 7-3 7-7 0-3-3-6-7-7L108 34c-4-8-12-14-22-14Zm0 13a9 9 0 1 1 0 18 9 9 0 0 1 0-18Z"/>
    </g>
  </g>

  <!-- Customs/doc card -->
  <g transform="translate(560 350)">
    <rect x="0" y="0" width="260" height="190" rx="18" fill="#f8f9fa"/>
    <rect x="24" y="24" width="160" height="18" rx="8" fill="#1e293b" opacity="0.14"/>
    <rect x="24" y="56" width="210" height="12" rx="6" fill="#1e293b" opacity="0.10"/>
    <rect x="24" y="80" width="210" height="12" rx="6" fill="#1e293b" opacity="0.10"/>
    <rect x="24" y="104" width="170" height="12" rx="6" fill="#1e293b" opacity="0.10"/>
    <rect x="24" y="140" width="120" height="34" rx="12" fill="#f39c12" opacity="0.18"/>
    <rect x="36" y="151" width="96" height="12" rx="6" fill="#d68910" opacity="0.30"/>
  </g>
</svg>
