<?xml version="1.0" encoding="UTF-8"?>
<svg xmlns="http://www.w3.org/2000/svg" width="900" height="620" viewBox="0 0 900 620" role="img" aria-label="B2C logistics illustration">
  <defs>
    <linearGradient id="g" x1="0" y1="0" x2="1" y2="1">
      <stop offset="0" stop-color="#fdf2e3"/>
      <stop offset="1" stop-color="#ffffff"/>
    </linearGradient>
  </defs>
  <rect x="0" y="0" width="900" height="620" rx="28" fill="url(#g)"/>

  <!-- City blocks -->
  <g fill="#1e293b" opacity="0.08">
    <rect x="70" y="130" width="140" height="220" rx="14"/>
    <rect x="230" y="90" width="180" height="300" rx="14"/>
    <rect x="430" y="150" width="160" height="240" rx="14"/>
    <rect x="610" y="110" width="220" height="280" rx="14"/>
  </g>

  <!-- Route + pin -->
  <path d="M160 450 C 250 380, 340 520, 460 450 S 680 420, 770 470" fill="none" stroke="#d68910" stroke-opacity="0.45" stroke-width="10"/>
  <path d="M160 450 C 250 380, 340 520, 460 450 S 680 420, 770 470" fill="none" stroke="#f39c12" stroke-opacity="0.28" stroke-width="18"/>
  <g transform="translate(760 430)">
    <path d="M32 6c-14 0-26 12-26 26 0 20 26 54 26 54s26-34 26-54C58 18 46 6 32 6Zm0 38a12 12 0 1 1 0-24 12 12 0 0 1 0 24Z" fill="#f39c12" opacity="0.95"/>
  </g>

  <!-- Delivery truck -->
  <g transform="translate(190 390)">
    <rect x="0" y="40" width="360" height="110" rx="18" fill="#1e293b" opacity="0.10"/>
    <rect x="360" y="64" width="170" height="86" rx="18" fill="#1e293b" opacity="0.12"/>
    <rect x="390" y="82" width="70" height="34" rx="8" fill="#ffffff" opacity="0.55"/>

    <g fill="#f39c12" opacity="0.85">
      <rect x="36" y="64" width="72" height="52" rx="10"/>
      <rect x="120" y="64" width="72" height="52" rx="10"/>
      <rect x="204" y="64" width="72" height="52" rx="10"/>
    </g>

    <g fill="#1e293b" opacity="0.25">
      <circle cx="120" cy="160" r="26"/>
      <circle cx="300" cy="160" r="26"/>
      <circle cx="420" cy="160" r="26"/>
    </g>
    <g fill="#ffffff" opacity="0.65">
      <circle cx="120" cy="160" r="12"/>
      <circle cx="300" cy="160" r="12"/>
      <circle cx="420" cy="160" r="12"/>
    </g>
  </g>
</svg>
